Patient4_TMGait_0pt8_01_left_01_EMG.mot
version=1
nRows=26
nColumns=33
inDegrees=no
endheader
time	1LAddLong	2LGlutMax	3LGlutMed	4LIliopsoas	5LSemiMemb	6LBicFemLong	7LRecFem	8LVastMed	9LVastLat	10LGasMed	11LTibAnt	12lTibPost	13LPeroneusLong	14LSol	15LExtDigLong	16LFlexDigLong	17RAddLong	18RGlutMax	19RGlutMed	20RIliopsoas	21RSemiMemb	22RBicFemLong	23RRecFem	24RVastMed	25RVastLat	26RGasMed	27RTibAnt	28RTibPost	29RPeroneusLong	30RSol	31RExtDigLong	32RFlexDigLong
1.348	0.02243	0.4538	-0.051422	-0.014801	0.009003	-0.072479	-0.035858	0.008698	0.15732	-0.029755	-0.005493	-0.003052	0.007324	-0.01709	0.010986	0.009918	-0.00061	-0.51758	0.099182	0.81131	0.19745	0.031128	0.000305	0.020599	0.00351	-0.042114	-0.036316	-0.02182	0.090485	0.72433	-0.00412	-0.008698
1.349	0.023956	0.439	-0.079956	-0.011597	0.006561	-0.077057	-0.024872	0.011292	0.1564	-0.045319	-0.000458	-0.006561	0.005035	-0.043182	0.029297	-0.006104	0.004578	-0.46814	0.088806	0.76782	0.023499	0.13733	0.042419	-0.036926	-0.024414	0.002136	-0.032043	-0.028381	0.29999	0.85373	0.005035	-0.003357
1.35	0.014954	0.44983	-0.10193	0.000763	-0.003357	-0.079651	-0.043488	0.003357	0.14832	-0.037994	0.002441	-0.010376	0.028076	-0.030212	0.03418	0.002441	0.008698	-0.51422	0.15457	0.66147	-0.13489	0.27206	0.022125	-0.003204	-0.043335	-0.005035	-0.005035	0.027771	0.10651	0.70816	-0.006409	0.003204
1.351	0.029449	0.4509	-0.10376	0.007172	0.005035	-0.085754	-0.020294	0.001678	0.15472	-0.048218	0.007629	-0.013123	0.03067	-0.058289	0.042114	0.00824	-0.018311	-0.52551	0.022736	0.52246	-0.027924	0.28458	0.022888	-0.020905	-0.030518	-0.004578	-0.017242	-0.021973	0.42999	0.27573	0.001678	-0.003967
1.352	0.025177	0.42557	-0.13016	0.018005	0.005646	-0.087585	-0.033569	0.005188	0.15686	-0.088654	0.004425	-0.014801	0.065002	-0.049744	0.007935	-0.006104	-0.004425	-0.59158	0.027313	0.46219	-0.1947	0.20233	0.010223	-0.20447	-0.026093	-0.005188	-0.046692	-0.26321	0.18768	-0.45548	-0.003815	0.001373
1.353	0.027313	0.4245	-0.15717	0.004272	0.003815	-0.091858	-0.042114	0.00061	0.1503	-0.091248	0.001068	-0.011139	0.063629	-0.03067	-0.034943	0.000305	-0.006409	-0.57007	0.25101	0.39993	-0.036621	0.042267	-0.007629	-0.11261	-0.028992	-0.023193	-0.02655	0.11566	-0.093079	-0.80902	-0.001068	-0.005035
1.354	0.023804	0.41306	-0.11246	0.025482	0.011292	-0.10864	-0.030212	-0.000153	0.13916	-0.054321	0.007935	-0.009766	0.050049	-0.065308	-0.080872	0.006866	0.023041	-0.63126	0.12787	0.3775	0.062561	-0.068665	0.065765	-0.13626	-0.057831	-0.052032	0.028839	0.1471	-0.25269	-0.92697	-0.005341	-0.008087
1.355	0.016479	0.37918	-0.10529	0.024261	0.016785	-0.11108	-0.023041	0.000305	0.13779	-0.049744	0.019836	-0.011292	0.043335	-0.055237	-0.2063	0.005646	0.004578	-0.64301	0.1001	0.3595	0.10132	-0.036316	0.042572	-0.035095	-0.060577	-0.044861	0.012054	-0.053711	-0.066681	-0.17883	-0.00412	-0.00885
1.356	0.018158	0.37949	-0.031586	0.015717	0.010529	-0.10635	-0.022278	0.003204	0.13794	-0.014954	0.016327	-0.014648	0.044708	-0.067139	0.044098	0.010071	-0.001373	-0.63248	0.17868	0.3096	0.1709	-0.07019	0.019531	-0.055389	-0.06546	-0.023499	-0.001831	0.078278	-0.09613	-0.029297	-0.005493	-0.006714
1.357	0.016785	0.41687	-0.028687	0.010681	0.002899	-0.10925	-0.010834	-0.003052	0.13794	-0.00351	0.004883	-0.005035	0.05127	-0.051422	0.61478	-0.001526	-0.009918	-0.63858	0.029449	0.27298	0.011902	-0.098572	0.00061	-0.039825	-0.061951	0.027924	0.011597	0.058136	-0.061493	0.35797	-0.004272	-0.004578
1.358	0.015411	0.3894	-0.026093	0	-0.015411	-0.079651	-0.005646	0.006561	0.12543	-0.004578	0.017395	-0.006104	0.079651	-0.055389	0.044556	0.014038	0.001526	-0.63843	-0.017853	0.18249	-0.05249	-0.092316	0.14725	-0.038452	-0.065308	0.049744	0.069275	-0.096741	-0.063019	0.35446	0.004272	-0.007629
1.359	0.012817	0.38101	-0.054169	-0.001221	-0.022888	-0.05188	-0.00351	0.00885	0.1294	-0.024872	0.011444	-0.002136	0.070801	-0.05127	-0.42938	0.006256	0.021057	-0.69031	-0.056305	0.13977	-0.089417	-0.10437	0.17838	0.10269	-0.098572	0.037384	0.083771	0.067596	0.05127	0.28214	-0.004272	-0.003357
1.36	0.011597	0.37994	-0.033875	0.002899	0.017395	-0.090637	0.009613	0.007324	0.12909	-0.040741	-0.010529	-0.006104	0.093994	-0.018311	-0.25497	0.004578	0.023651	-0.66864	-0.093994	0.092773	-0.11597	-0.10559	0.10422	0.12283	-0.055542	0.027466	0.09903	0.073242	-0.13641	0.075073	-0.000458	-0.011902
1.361	0.020752	0.39246	-0.021057	-0.003357	0.027771	-0.10223	-0.014496	0.008392	0.12604	-0.027161	-0.012512	-0.009003	0.075378	-0.056	-0.20889	-0.002136	0.010986	-0.66513	-0.090332	0.085602	-0.14603	-0.061646	-0.13809	0.097961	-0.13306	-0.014496	0.13886	0.028076	-0.25452	-0.086212	-0.002594	-0.013733
1.362	0.018616	0.3714	-0.046082	-0.00885	-0.003967	-0.11841	-0.001678	-0.001221	0.11978	-0.016785	-0.005646	-0.009003	-0.035858	-0.071411	-0.095062	0.005188	-0.00946	-0.71808	-0.046539	0.19196	0.049591	-0.074463	-0.41779	0.05127	0.038757	-0.040131	0.1387	-0.004578	-0.25131	-0.13718	-0.004272	-0.014648
1.363	0.020294	0.37796	-0.051727	-0.004883	-0.013275	-0.095673	0.01297	0.002594	0.10941	-0.024719	-0.004272	-0.00824	0.00885	-0.080414	-0.022278	0.007477	-0.019684	-0.69122	0.37415	0.30823	0.1178	-0.14404	-0.4364	0.13336	0.15335	-0.041351	-0.03418	-0.019379	1.5067	-0.23956	-0.001831	-0.009155
1.364	0.016022	0.35797	-0.066833	0.00351	0.00824	-0.073395	0.016479	0.00412	0.083008	-0.024872	0.001678	-0.010681	0.063629	-0.048065	0.005493	0.001984	0.034027	-0.66498	0.49194	0.23727	0.070648	-0.21606	-0.046692	0.11887	0.11459	-0.024109	-0.21164	-0.016785	1.315	-0.23102	-0.002136	-0.008087
1.365	0.013275	0.37582	-0.052795	0.005188	0.014954	-0.066833	0.017548	0.005493	0.080719	-0.016327	0.005188	-0.010223	0.063324	-0.050964	0.015106	0.001068	0.052032	-0.64194	0.21103	0.12741	0.043793	-0.18036	-0.016327	0.10529	0.093079	-0.001984	-0.17303	-0.028534	-0.86441	-0.13412	-0.005493	-0.001984
1.366	0.012665	0.34943	-0.053558	0.009613	0.009613	-0.035095	0.039063	0.005341	0.079346	-0.032959	0.001984	-0.015411	0.068512	-0.055847	0.01297	-0.006866	0.032043	-0.68253	-0.011139	0.094604	-0.03891	0.007172	-0.055695	0.11597	0.13214	-0.011902	-0.20233	-0.030823	-1.5106	-0.092163	-0.005798	-0.017395
1.367	0.015411	0.31082	-0.059052	0.00473	0.003967	-0.055237	0.015564	0.011902	0.066681	-0.018616	0.003052	-0.00946	0.072937	-0.065002	0.011902	0.006104	0.034027	-0.66132	0.20584	0.03891	-0.054321	0.040741	-0.057678	0.083618	0.074921	-0.026703	-0.08728	-0.035858	-0.93079	-0.020752	-0.002899	-0.010529
1.368	0.007935	0.30365	-0.042572	0.014038	-0.009155	-0.039825	0.030823	0.005188	0.080109	-0.02533	0.0354	-0.006866	0.051575	-0.076904	0.016632	0.001984	0.035706	-0.69488	0.54123	0.032349	-0.002594	-0.045013	-0.10819	0.090332	0.022583	-0.022125	0.035706	-0.026093	0.14389	-0.063477	-0.007629	-0.007324
1.369	0.006866	0.30487	-0.014648	0.005341	-0.008087	-0.076294	0.024872	0.004578	0.072784	-0.021057	0.062561	-0.010834	0.055389	-0.050049	0.023804	-0.002136	0.061188	-0.71396	0.25436	0.070801	-0.50552	0.034027	-0.014191	0.007629	-0.016479	-0.011749	0.17471	-0.042114	-0.2446	-0.1889	-0.005188	-0.015106
1.37	0.005493	0.30685	-0.013733	0	-0.020294	-0.121	0.024261	0.002747	0.078125	-0.031128	0.040588	-0.006561	0.017395	-0.077362	0.013428	0.004272	0.038757	-0.71777	-0.053101	0.14221	-1.0245	0.14999	-0.069885	-0.072784	-0.01709	0.010681	0.16632	-0.11383	-0.57495	-0.37338	-0.005341	-0.009003
1.371	0.012665	0.27863	-0.018311	0.000153	0.018158	-0.10635	0.028229	-0.00061	0.079193	-0.048523	-0.068817	-0.007629	0.065002	-0.039368	0.017395	0.004883	-0.062866	-0.71442	0.03006	0.1326	-0.40466	0.079956	-0.079651	0.056915	-0.002899	0.032043	0.046082	-0.30991	-0.33371	-0.36743	-0.00885	-0.012054
1.372	0.015717	0.27023	-0.009766	0.005951	0.054169	-0.11108	0.017853	-0.001984	0.068512	-0.05188	-0.053864	-0.011139	0.063019	-0.027466	0.043488	-0.004578	-0.022888	-0.72098	-0.054016	0.11276	0.54672	-0.067596	-0.065613	0.11276	0.010071	0.057526	-0.007324	-0.046997	-0.16205	0.10574	-0.005798	-0.008392
1.373	0.012665	0.25986	-0.03067	0.002747	0.029297	-0.077362	0.021362	-0.00412	0.070038	-0.047913	0.014343	-0.007629	0.005188	-0.046844	0.047913	0.000916	-0.019226	-0.71503	0.007477	0.085602	0.30594	-0.011139	-0.086212	0.11307	0.013275	0.066986	0.005951	0.16769	-0.20538	0.083618	-0.002441	-0.018158
